<svg xmlns="http://www.w3.org/2000/svg" xmlns:xlink="http://www.w3.org/1999/xlink" width="64" height="64" viewBox="0 0 64 64">
  <defs>
    <filter id="長方形_12911" x="0" y="0" width="64" height="64" filterUnits="userSpaceOnUse">
      <feOffset dy="2" input="SourceAlpha"/>
      <feGaussianBlur stdDeviation="2" result="blur"/>
      <feFlood flood-color="#3e465d" flood-opacity="0.161"/>
      <feComposite operator="in" in2="blur"/>
      <feComposite in="SourceGraphic"/>
    </filter>
    <clipPath id="clip-path">
      <rect id="長方形_4235" data-name="長方形 4235" width="28" height="28" transform="translate(-20866 -21948)" fill="#4c5163"/>
    </clipPath>
  </defs>
  <g id="FaceIcon_04_off" transform="translate(-5189 5497)">
    <rect id="長方形_12915" data-name="長方形 12915" width="64" height="64" transform="translate(5189 -5497)" fill="#fff" opacity="0"/>
    <g transform="matrix(1, 0, 0, 1, 5189, -5497)" filter="url(#長方形_12911)">
      <g id="長方形_12911-2" data-name="長方形 12911" transform="translate(6 4)" fill="#fff" stroke="#bec1c3" stroke-width="1">
        <rect width="52" height="52" rx="10" stroke="none"/>
        <rect x="0.5" y="0.5" width="51" height="51" rx="9.5" fill="none"/>
      </g>
    </g>
    <g id="グループ_16302" data-name="グループ 16302" transform="translate(26091 16601)">
      <rect id="長方形_12931" data-name="長方形 12931" width="32" height="32" transform="translate(-20886 -22084)" fill="#fff" opacity="0"/>
      <g id="icon_face_Usually" transform="translate(-18 -134)" clip-path="url(#clip-path)">
        <path id="合体_73" data-name="合体 73" d="M0,14A14,14,0,1,1,14,28,14,14,0,0,1,0,14Zm1.806,0A12.194,12.194,0,1,0,14,1.806,12.194,12.194,0,0,0,1.806,14Zm5.9,4.446a.778.778,0,0,1,.77-1.352,10.938,10.938,0,0,0,10.9,0,.778.778,0,1,1,.769,1.352,12.5,12.5,0,0,1-12.436,0Zm12.176-5.793c-.344-.584-.727-.881-1.143-.881a1.426,1.426,0,0,0-1.1.666.759.759,0,0,1-1.031.262.751.751,0,0,1-.261-1.026,2.925,2.925,0,0,1,2.389-1.4h.005A2.794,2.794,0,0,1,21.178,11.9a.745.745,0,0,1-.266,1.023.727.727,0,0,1-.379.1A.75.75,0,0,1,19.886,12.653ZM6.62,12.919A.744.744,0,0,1,6.354,11.9a2.785,2.785,0,0,1,2.43-1.625,2.932,2.932,0,0,1,2.393,1.4.75.75,0,1,1-1.292.764,1.436,1.436,0,0,0-1.1-.666c-.41,0-.795.3-1.138.881A.751.751,0,0,1,7,13.022.718.718,0,0,1,6.62,12.919ZM14,0h0Z" transform="translate(-20866 -21948)" fill="#4c5163"/>
      </g>
    </g>
  </g>
</svg>
