<svg xmlns="http://www.w3.org/2000/svg" xmlns:xlink="http://www.w3.org/1999/xlink" width="64" height="64" viewBox="0 0 64 64">
  <defs>
    <filter id="長方形_12934" x="3" y="2" width="58" height="58" filterUnits="userSpaceOnUse">
      <feOffset dy="1" input="SourceAlpha"/>
      <feGaussianBlur stdDeviation="1" result="blur"/>
      <feFlood flood-color="#3e465d" flood-opacity="0.161"/>
      <feComposite operator="in" in2="blur"/>
      <feComposite in="SourceGraphic"/>
    </filter>
    <clipPath id="clip-path">
      <rect id="長方形_4237" data-name="長方形 4237" width="28" height="28" fill="#fff"/>
    </clipPath>
  </defs>
  <g id="FaceIcon_01_on" transform="translate(-4973 5419)">
    <rect id="長方形_12922" data-name="長方形 12922" width="64" height="64" transform="translate(4973 -5419)" fill="#fff" opacity="0"/>
    <g transform="matrix(1, 0, 0, 1, 4973, -5419)" filter="url(#長方形_12934)">
      <rect id="長方形_12934-2" data-name="長方形 12934" width="52" height="52" rx="10" transform="translate(6 4)" fill="#009ddc"/>
    </g>
    <g id="グループ_16274" data-name="グループ 16274" transform="translate(5 183)">
      <rect id="長方形_4238" data-name="長方形 4238" width="32" height="32" transform="translate(4984 -5588)" fill="#fff" opacity="0"/>
      <g id="icon_face_bad" transform="translate(4986 -5586)">
        <g id="グループ_14014" data-name="グループ 14014" transform="translate(0 0)" clip-path="url(#clip-path)">
          <path id="パス_13692" data-name="パス 13692" d="M14,1.807A12.193,12.193,0,1,1,1.807,14,12.193,12.193,0,0,1,14,1.807M14,0A14,14,0,1,0,28,14,14,14,0,0,0,14,0" transform="translate(0 0)" fill="#fff"/>
          <path id="パス_13693" data-name="パス 13693" d="M8.615,8.87,10.2,7.287A.9.9,0,0,0,8.931,6.02L7.348,7.6,5.764,6.02A.9.9,0,0,0,4.5,7.287L6.081,8.87,4.5,10.454A.9.9,0,0,0,5.764,11.72l1.584-1.584L8.931,11.72A.9.9,0,1,0,10.2,10.454Z" transform="translate(1.48 2.124)" fill="#fff"/>
          <path id="パス_13694" data-name="パス 13694" d="M16.177,8.951,17.76,7.368A.9.9,0,1,0,16.493,6.1L14.911,7.685,13.328,6.1a.9.9,0,1,0-1.267,1.267l1.583,1.584-1.583,1.584A.9.9,0,1,0,13.328,11.8l1.584-1.584L16.494,11.8a.9.9,0,0,0,1.267-1.267Z" transform="translate(4.122 2.153)" fill="#fff"/>
          <path id="パス_13695" data-name="パス 13695" d="M14.075,16.463a1.223,1.223,0,0,1-.812-.309l-1.131-1-1.131,1a1.222,1.222,0,0,1-1.653-.026L8.151,15l-1.789,1.29a.778.778,0,1,1-.91-1.261l2.008-1.45a1.229,1.229,0,0,1,1.558.1l1.175,1.1,1.124-.992a1.23,1.23,0,0,1,1.625,0l1.124.994,1.175-1.1a1.229,1.229,0,0,1,1.559-.1l2.008,1.45a.778.778,0,1,1-.91,1.261L16.11,15l-1.2,1.124A1.225,1.225,0,0,1,14.075,16.463Z" transform="translate(1.869 4.538)" fill="#fff"/>
        </g>
      </g>
    </g>
  </g>
</svg>
