<svg xmlns="http://www.w3.org/2000/svg" xmlns:xlink="http://www.w3.org/1999/xlink" width="32" height="32" viewBox="0 0 32 32">
  <defs>
    <clipPath id="clip-path">
      <rect id="長方形_4239" data-name="長方形 4239" width="24" height="24" transform="translate(3788 2969)" fill="#ebecf0"/>
    </clipPath>
    <clipPath id="clip-path-2">
      <rect id="長方形_4237" data-name="長方形 4237" width="24" height="24" transform="translate(0 -0.096)" fill="#818591"/>
    </clipPath>
  </defs>
  <g id="icon_face_bad" transform="translate(-3786 -2967)">
    <rect id="長方形_4238" data-name="長方形 4238" width="32" height="32" transform="translate(3786 2967)" fill="#fff" opacity="0"/>
    <g id="マスクグループ_6322" data-name="マスクグループ 6322" transform="translate(2 2)" clip-path="url(#clip-path)">
      <g id="icon_face_bad-2" data-name="icon_face_bad" transform="translate(3788 2969.096)">
        <g id="グループ_14014" data-name="グループ 14014" clip-path="url(#clip-path-2)">
          <path id="パス_13692" data-name="パス 13692" d="M11.952,1.542a10.41,10.41,0,1,1-10.41,10.41,10.41,10.41,0,0,1,10.41-10.41m0-1.542A11.952,11.952,0,1,0,23.9,11.952,11.952,11.952,0,0,0,11.952,0" fill="#4c5163"/>
          <path id="パス_13693" data-name="パス 13693" d="M7.989,8.426,9.346,7.068A.768.768,0,0,0,8.26,5.983L6.9,7.34,5.546,5.983A.768.768,0,0,0,4.46,7.068L5.817,8.426,4.46,9.783a.768.768,0,1,0,1.086,1.086L6.9,9.511,8.26,10.869A.768.768,0,0,0,9.346,9.783Z" transform="translate(0.664 0.902)" fill="#4c5163"/>
          <path id="パス_13694" data-name="パス 13694" d="M15.551,8.507l1.357-1.357a.768.768,0,0,0-1.086-1.086L14.467,7.421,13.109,6.064a.768.768,0,1,0-1.086,1.086l1.357,1.357L12.024,9.864a.768.768,0,1,0,1.086,1.086l1.357-1.357,1.357,1.357A.768.768,0,0,0,16.91,9.864Z" transform="translate(1.848 0.915)" fill="#4c5163"/>
          <path id="パス_13695" data-name="パス 13695" d="M12.8,16.018a1.048,1.048,0,0,1-.7-.265l-.97-.857-.97.857a1.047,1.047,0,0,1-1.417-.022L7.72,14.767,6.186,15.873a.667.667,0,1,1-.78-1.081l1.721-1.243a1.053,1.053,0,0,1,1.335.087l1.007.947.964-.85a1.054,1.054,0,0,1,1.393,0l.964.852,1.007-.947a1.054,1.054,0,0,1,1.336-.088l1.721,1.243a.667.667,0,1,1-.78,1.081l-1.533-1.106-1.025.963A1.05,1.05,0,0,1,12.8,16.018Z" transform="translate(0.869 1.886)" fill="#4c5163"/>
        </g>
      </g>
    </g>
  </g>
</svg>
