<svg xmlns="http://www.w3.org/2000/svg" xmlns:xlink="http://www.w3.org/1999/xlink" width="32" height="32" viewBox="0 0 32 32">
  <defs>
    <clipPath id="clip-path">
      <rect id="長方形_4414" data-name="長方形 4414" width="20" height="20" transform="translate(92 508)" fill="#ebecf0"/>
    </clipPath>
    <clipPath id="clip-path-2">
      <rect id="長方形_4441" data-name="長方形 4441" width="20" height="20" fill="none"/>
    </clipPath>
  </defs>
  <g id="icon_Pain_32" transform="translate(-250 -596)">
    <rect id="長方形_4394" data-name="長方形 4394" width="32" height="32" transform="translate(250 596)" fill="#fff" opacity="0"/>
    <g id="グループ_14036" data-name="グループ 14036" transform="translate(164 94)">
      <rect id="長方形_4252" data-name="長方形 4252" width="24" height="24" transform="translate(90 506)" fill="#ebecf0" opacity="0"/>
      <g id="マスクグループ_6360" data-name="マスクグループ 6360" clip-path="url(#clip-path)">
        <g id="icon_stomachace_OL" transform="translate(92 508)" clip-path="url(#clip-path-2)">
          <g id="グループ_14265" data-name="グループ 14265">
            <g id="グループ_14264" data-name="グループ 14264">
              <path id="パス_13869" data-name="パス 13869" d="M11.47,13.15a.4.4,0,0,1-.36-.24.385.385,0,0,1,.07-.42L13.875,9.5a.143.143,0,0,0,.033-.132.142.142,0,0,0-.1-.1L11.83,8.617a.394.394,0,0,1-.192-.61l4.485-6.045a.394.394,0,0,1,.317-.16.38.38,0,0,1,.147.03L19.63,3.068a.4.4,0,0,1,.125.653l-3.378,3.2a.139.139,0,0,0-.042.133.145.145,0,0,0,.09.108l2.1.81a.39.39,0,0,1,.25.328.4.4,0,0,1-.18.373L11.69,13.088a.4.4,0,0,1-.215.065h0Z" fill="#f08400"/>
              <path id="パス_13870" data-name="パス 13870" d="M16.438,1.93a.274.274,0,0,1,.1.02L19.58,3.185a.27.27,0,0,1,.085.445l-3.378,3.2a.268.268,0,0,0,.087.445l2.1.81a.269.269,0,0,1,.048.477L11.617,12.98a.266.266,0,0,1-.148.045.272.272,0,0,1-.2-.453L13.967,9.58a.269.269,0,0,0-.118-.435L11.867,8.5a.268.268,0,0,1-.132-.415L16.22,2.037a.268.268,0,0,1,.215-.107m0-.25a.521.521,0,0,0-.417.21L11.532,7.935a.519.519,0,0,0,.255.8l1.983.648a.018.018,0,0,1,.012.012c0,.01,0,.015-.005.017l-2.695,2.993a.512.512,0,0,0-.092.555.523.523,0,0,0,.475.315.533.533,0,0,0,.283-.085l6.9-4.418a.519.519,0,0,0-.093-.922l-2.1-.81a.026.026,0,0,1-.013-.015.024.024,0,0,1,0-.017l3.378-3.2a.519.519,0,0,0-.163-.858L16.625,1.717a.52.52,0,0,0-.195-.038h0Z" fill="#fff"/>
            </g>
            <path id="パス_13871" data-name="パス 13871" d="M4.113,8.975a.552.552,0,0,1-.37-.14.565.565,0,0,1-.053-.8L7.258,3.967a.566.566,0,0,1,.4-.192.557.557,0,0,1,.412.155l.7.672.82-.82a.573.573,0,0,1,.42-.165.55.55,0,0,1,.4.2L11.94,5.6a.562.562,0,0,1-.855.73L9.957,5.007l-.778.778a.561.561,0,0,1-.785.01L7.717,5.15,4.535,8.785a.559.559,0,0,1-.423.193Z" fill="#f08400"/>
            <path id="パス_13872" data-name="パス 13872" d="M.75,18.135a.563.563,0,0,1-.373-.985c.733-.647,1.4-2.6,1.685-4.983A16.8,16.8,0,0,0,1.635,5.3.563.563,0,1,1,2.7,4.947c1.347,4.037.475,11.233-1.58,13.045a.558.558,0,0,1-.373.14Z" fill="#f08400"/>
            <path id="パス_13873" data-name="パス 13873" d="M17.25,18.135a.571.571,0,0,1-.372-.14c-.975-.86-1.75-3.038-2.073-5.82a.562.562,0,1,1,1.118-.128c.282,2.44.95,4.445,1.7,5.108a.563.563,0,0,1-.373.985Z" fill="#f08400"/>
            <path id="パス_13874" data-name="パス 13874" d="M7.56,18.095a.553.553,0,0,1-.34-.115L3.327,15a.562.562,0,1,1,.682-.892L7.9,17.087a.561.561,0,0,1-.343,1.007Z" fill="#f08400"/>
            <path id="パス_13875" data-name="パス 13875" d="M10.12,18.095a.561.561,0,0,1-.343-1.007l3.892-2.975a.562.562,0,1,1,.683.892L10.46,17.98A.563.563,0,0,1,10.12,18.095Z" fill="#f08400"/>
            <path id="パス_13876" data-name="パス 13876" d="M10.042,12.8l-.37-.37.355-.355a.562.562,0,0,0-.8-.8l-.355.355-.355-.355a.562.562,0,1,0-.8.8l.355.355-.37.37a.562.562,0,1,0,.8.8l.37-.37.37.37a.562.562,0,0,0,.8-.8Z" fill="#f08400"/>
          </g>
        </g>
      </g>
    </g>
  </g>
</svg>
