<svg xmlns="http://www.w3.org/2000/svg" xmlns:xlink="http://www.w3.org/1999/xlink" width="32" height="32" viewBox="0 0 32 32">
  <defs>
    <clipPath id="clip-path">
      <rect id="長方形_4414" data-name="長方形 4414" width="20" height="20" transform="translate(92 508)" fill="#ebecf0"/>
    </clipPath>
  </defs>
  <g id="icon_Medicine_32" transform="translate(-250 -596)">
    <rect id="長方形_4394" data-name="長方形 4394" width="32" height="32" transform="translate(250 596)" fill="#fff" opacity="0"/>
    <g id="グループ_14036" data-name="グループ 14036" transform="translate(164 94)">
      <rect id="長方形_4252" data-name="長方形 4252" width="24" height="24" transform="translate(90 506)" fill="#ebecf0" opacity="0"/>
      <g id="マスクグループ_6352" data-name="マスクグループ 6352" clip-path="url(#clip-path)">
        <g id="icon_Medicine" transform="translate(89.803 506.006)">
          <g id="グループ_14170" data-name="グループ 14170">
            <path id="パス_13820" data-name="パス 13820" d="M13.183,4.239A4.27,4.27,0,0,0,7.348,5.8L2.771,13.729A4.271,4.271,0,1,0,10.168,18l4.577-7.928a4.27,4.27,0,0,0-1.562-5.835Z" fill="#8cd637"/>
            <path id="パス_13821" data-name="パス 13821" d="M6.128,10.354l-2.3,3.985a3.052,3.052,0,0,0,5.285,3.052l2.3-3.985a38.7,38.7,0,0,0-5.285-3.052Z" fill="#fff"/>
          </g>
          <path id="パス_13822" data-name="パス 13822" d="M7.956,9.753A.62.62,0,0,1,7.65,9.67a.609.609,0,0,1-.223-.833L8.8,6.46a.61.61,0,0,1,1.056.61L8.483,9.448A.609.609,0,0,1,7.956,9.753Z" fill="#fff"/>
          <path id="パス_13823" data-name="パス 13823" d="M22.194,13.94c0-1.855-2.46-3.357-5.493-3.357a8.415,8.415,0,0,0-2.453.357L13.18,12.792A6.084,6.084,0,0,1,16.7,11.8a7.343,7.343,0,0,1,1.459.143l-4.883,3.21a1.767,1.767,0,0,1-.836-1.089L11.212,16.2v.61c0,1.968,2.414,3.509,5.493,3.509S22.2,18.783,22.2,16.814V14.037h-.009c0-.034.009-.064.009-.1Zm-1.221,2.872c0,1.242-1.956,2.289-4.272,2.289s-4.272-1.047-4.272-2.289v-.766A7.221,7.221,0,0,0,16.7,17.293a7.221,7.221,0,0,0,4.272-1.248ZM16.7,16.076a7.2,7.2,0,0,1-2.127-.311l5.063-3.329c.83.415,1.337.973,1.337,1.5C20.974,14.947,19.146,16.076,16.7,16.076Z" fill="#8cd637"/>
        </g>
      </g>
    </g>
  </g>
</svg>
